<?xml version="1.0" encoding="UTF-8"?>
<svg id="Capa_2" data-name="Capa 2" xmlns="http://www.w3.org/2000/svg" viewBox="0 0 1082.06 243.57">
  <defs>
    <style>
      .cls-1 {
        fill: #ffffff;
      }
    </style>
  </defs>
  <g id="Capa_1-2" data-name="Capa 1">
    <g>
      <path class="cls-1" d="M280.41,3.52h0c8.36,0,15.15,6.79,15.15,15.15v222.71c0,.84-.68,1.51-1.51,1.51h0c-8.36,0-15.15-6.79-15.15-15.15V5.04c0-.84.68-1.51,1.51-1.51Z"/>
      <g>
        <g>
          <path class="cls-1" d="M209.12,55.68l-10.7,40.85-10.72,40.97h0l-6.29,24.04-18.09,8.42-47.05,23.58h-.06l-47.06-23.58-18.09-8.43-6.29-24.04-10.72-40.95-10.7-40.86c9.31.49,17.11,6.73,19.88,15.25l.68,2.59,20.52,78.4,51.81,38,51.8-37.99,20.52-78.39s0-.03,0-.04l.66-2.54s0-.03,0-.04c2.78-8.51,10.56-14.75,19.88-15.24Z"/>
          <path class="cls-1" d="M116.24,204.3l-75.77-30.16-5.22-19.96-7.66-29.28-6.52-24.92c-.19,0-.38-.01-.57-.04-.04-1.41-.22-2.79-.52-4.12l-.4-1.53c-.01-.06-.03-.12-.05-.17-2.64-8.52-10.29-14.84-19.52-15.52.04,1.57.26,3.1.63,4.58l.12.49s0,.02,0,.03c0,.01,0,.02,0,.04l6.97,26.63,2.39,9.13,6.86,26.19,6.16,23.56,4.09,15.61,89,23.16,89-23.16,4.09-15.61,6.16-23.56,6.86-26.19,2.39-9.14,7.06-26.97c.39-1.54.63-3.14.68-4.78-9.19.67-16.82,6.95-19.5,15.44l-.55,2.1s-.01.07-.02.09c-.25,1.21-.39,2.45-.43,3.72-.18.02-.37.03-.55.04l-6.52,24.92-7.67,29.28-5.22,19.96-75.77,30.16Z"/>
          <path class="cls-1" d="M164.22,92.25c.28,1.73.43,3.51.43,5.33,0,6.79-2.03,13.11-5.53,18.38-.95,1.44-2,2.78-3.16,4.05-1.22,1.35-2.57,2.6-4,3.72-.26.22-.53.42-.8.62.13-.95.2-1.92.2-2.91,0-6.52-2.85-12.37-7.37-16.38-.21-.19-.43-.38-.66-.56-.45-.37-.92-.72-1.4-1.05-.04-.04-.09-.07-.14-.1-.18-.12-.35-.23-.53-.35l-.04-.02-35.97-26.09-24.25-17.6-.22-.16c-1.39,1.98-2.2,4.4-2.2,7,0,.83.09,1.64.24,2.43h0c.05.28.12.54.19.79.31,1.14.78,2.22,1.39,3.21,2.49,4.67,6.63,8.34,11.64,10.22.01,0,.03,0,.04.01.32.12.64.23.97.33.05.02.1.04.16.06,8.27,3.1,14.16,11.09,14.16,20.44,0,6.76-3.08,12.8-7.91,16.81-1.36,1.13-2.86,2.1-4.48,2.88-2.86,1.37-6.05,2.14-9.43,2.14-1.01,0-2.01-.07-2.99-.2-.01,0-.02,0-.04,0-.98-.14-1.93-.34-2.86-.6-3.15-.88-6.01-2.46-8.42-4.55.31-.57.6-1.15.85-1.76.14-.31.26-.63.37-.94.07-.19.13-.37.2-.57.17-.5.31-1,.42-1.52.18-.73.31-1.48.4-2.24.04-.29.07-.58.09-.88,0-.08,0-.16.01-.24.02-.39.04-.78.04-1.17,0-1.38-.14-2.73-.42-4.02-.28-1.38-.72-2.71-1.29-3.96-.11-.26-.23-.5-.36-.75-.02-.03-.04-.07-.05-.1-1.67-3.57-2.85-7.42-3.43-11.46-.04-.24-.07-.48-.1-.72h0c-.11-.87-.19-1.73-.25-2.61-.03-.42-.05-.85-.07-1.27s-.02-.85-.02-1.27c0-.66.01-1.32.04-1.98.47-9.8,4.37-18.68,10.52-25.5.07.06.14.12.21.17,0-.03,0-.05.01-.08l-.19-.13s-.02.02-.04.04c-.03-.02-.05-.04-.07-.06-.15-.13-.29-.26-.44-.39-3.67-3.27-6.62-7.33-8.56-11.93-1.68-3.98-2.61-8.36-2.61-12.95,0-6.79,2.03-13.11,5.53-18.38,1.89-2.86,4.23-5.42,6.9-7.56.36-.29.72-.58,1.09-.85-.13.95-.2,1.91-.2,2.9,0,.73.04,1.45.11,2.16.25,2.66.99,5.18,2.12,7.48,1.52,3.1,3.75,5.78,6.48,7.84l.66.47,36.71,26.63,6.52,4.72,6.76-9.69.07-.1c-4.94-4.47-8.53-10.41-10.1-17.12-.19-1.28-.28-2.57-.28-3.9,0-5.47,1.64-10.55,4.45-14.79,1.14-1.73,2.48-3.32,4-4.74.77-.72,1.57-1.4,2.43-2.03-.11.77-.16,1.54-.16,2.33,0,.47.01.93.06,1.38.39,5.17,3.04,9.74,6.95,12.69l.52.38c7.16,6.11,18.23,12.29,18.23,22.45,0,4.2-.78,8.21-2.19,11.91-.89,2.32-2.03,4.51-3.39,6.54l-16.17-11.73-6.73,9.65,13.32,9.66,1.33.98c6.64,5.07,11.32,12.56,12.7,21.16Z"/>
        </g>
        <g>
          <path class="cls-1" d="M60.04,226.49c0-1.9,0-3.72-.13-5.67-.21-2.75-.55-3.68-3.51-3.68h-5.84c-3.09,0-4.4-.3-5.42-1.44l2.5-6.9h1.1c.85,1.52,1.48,1.82,4.02,1.82h5.46c4.19,0,6.01,1.99,6.01,6.47,0,2.24-.13,3.81-.13,6.26,0,1.9.13,3.34.47,6.13l-3.22,3.43h-1.06c-.25-1.61-.25-3.77-.25-6.43ZM46.92,227.76c0-1.44.04-2.92.17-4.4l3.55-3.13h.97c-.08,1.44-.08,2.92-.08,4.4s.04,3.05.17,4.57l-3.55,3.76h-1.06c-.13-1.73-.17-3.47-.17-5.2Z"/>
          <path class="cls-1" d="M81.36,235.68c2.45-.13,5.33-.21,8.17-.21h1.86v-5.54c0-2.79-.68-3.51-3.09-3.51h-3.68c-2.37,0-3.34-.3-4.32-1.52l2.41-6.81h.97c.68,1.4,1.48,1.82,3.38,1.82h4.19c3.22,0,4.78,1.44,4.78,4.91,0,2.37-.47,5.29-.47,7.62s.76,3.22,2.92,3.22l-.89,6.13h-10.66c-2.88,0-4.95,0-7.06.08l1.48-6.18Z"/>
          <path class="cls-1" d="M114.49,241.01c1.23-2.79,2.12-4.74,2.12-6.39,0-.93-.38-1.48-1.31-2.03l-1.06-.59c-1.14-.68-1.82-1.27-1.99-1.73l2.58-6.13h.97c.08.59.42,1.14,1.73,1.86l2.07,1.1c1.27.68,2.16,1.57,2.2,3.6.13,3.38-2.2,8.8-6.26,11l-1.06-.68Z"/>
          <path class="cls-1" d="M140.51,233.64l-.34-3.43c-.21-1.99-.72-3.05-1.99-4.23-.68-.63-1.44-1.44-1.73-1.95l2.45-6.09h1.02c.25.85.76,1.4,1.48,1.99l.85.59c1.4,1.06,1.57,2.07,1.57,3.13,0,1.4-.13,2.88-.08,4.27.17,5.5,2.37,8.33,6.09,8.33,4.57,0,7.53-3.34,7.53-7.7,0-1.14-.59-1.99-1.27-2.58-.8-.72-1.27-1.35-1.48-2.16l2.54-5.88h.97c.21.72.38,1.4,1.27,2.41l.8.85c1.35,1.52,1.86,2.58,1.86,4.99,0,5.67-4.95,16.2-13.2,16.2-4.57,0-7.78-2.79-8.33-8.76ZM146.9,233.43c.55-1.1,1.48-3,1.48-5.16,0-1.44-.42-1.9-1.23-2.58-.72-.63-1.23-1.18-1.4-2.07l2.11-5.67h1.14c.25.89.59,1.52,1.4,2.16l.89.68c1.14.93,1.52,1.78,1.52,4.1,0,4.02-2.96,7.91-4.95,9.14l-.97-.59Z"/>
          <path class="cls-1" d="M178.67,225.9c1.23-2.79,2.12-4.74,2.12-6.39,0-.93-.38-1.48-1.31-2.03l-1.06-.59c-1.14-.68-1.82-1.27-1.99-1.73l2.58-6.13h.97c.08.59.42,1.14,1.73,1.86l2.07,1.1c1.27.68,2.16,1.57,2.2,3.6.13,3.38-2.2,8.8-6.26,11l-1.06-.68Z"/>
        </g>
      </g>
      <g>
        <g>
          <path class="cls-1" d="M379.96,103.38L345.06,2.05h34.89l14.71,60.51h3.49l15.2-60.51h34.39l-35.39,101.32v42.25h-32.4v-42.25Z"/>
          <path class="cls-1" d="M503.58,83.27v36.3h39.38v26.05h-71.78V1.85h70.53v26.05h-38.13v31.38h34.4v24h-34.4Z"/>
          <path class="cls-1" d="M568.13,118.14v-19.28h30.41v12.1c0,9.02,3.99,13.54,11.71,13.54s11.96-4.51,11.96-12.92c0-9.03-4.99-16.61-18.94-27.07l-11.71-8.82c-15.95-12.31-23.43-25.23-23.43-41.43,0-22.56,14.46-34.25,42.87-34.25,26.92,0,42.87,10.67,42.87,28.92v15.38h-30.41v-9.44c0-7.59-3.99-11.69-11.22-11.69s-11.96,4.51-11.96,11.9,4.74,14.36,16.7,23.18l10.47,8c19.44,14.36,27.92,28.3,27.92,46.35,0,23.59-14.46,35.07-43.37,35.07s-43.87-10.67-43.87-29.54Z"/>
          <path class="cls-1" d="M715.43,86.56v59.07h-32.4V2.05h32.4v60.1h25.92V2.05h32.4v143.58h-32.4v-59.07h-25.92Z"/>
          <path class="cls-1" d="M804.91,2.05h32.4v143.58h-32.4V2.05Z"/>
          <path class="cls-1" d="M919.55,111.37l15.45-109.32h34.39l-28.66,143.58h-45.86L860.73,2.05h36.64l19.44,109.32h2.74Z"/>
          <path class="cls-1" d="M1012.77,117.32l-4.74,28.3h-32.15L1008.04,2.05h41.62l32.4,143.58h-32.65l-4.74-28.3h-31.9ZM1027.48,29.33l-10.47,63.58h23.68l-10.72-63.58h-2.49Z"/>
        </g>
        <g>
          <path class="cls-1" d="M348.35,195.69h6.17v47.2h-6.17v-47.2Z"/>
          <path class="cls-1" d="M374.57,205.13v37.76h-5.7v-47.2h7.5l15.01,36.55h.67v-36.55h5.7v47.2h-6.65l-15.86-37.76h-.67Z"/>
          <path class="cls-1" d="M410.57,233.99v-5.53h5.89v4.38c0,4.52,2.56,6.81,7.41,6.81s7.31-2.23,7.31-6.61-2.18-7.42-7.98-11.6l-4.08-2.97c-5.89-4.25-8.55-8.16-8.55-13.08,0-6.61,4.75-10.38,13.39-10.38s13.11,3.51,13.11,9.51v4.11h-5.89v-3.24c0-4.18-2.47-6.47-7.03-6.47s-7.41,2.36-7.41,6.47c0,3.51,1.99,6.41,6.84,9.91l4.27,2.97c6.84,4.85,9.78,9.3,9.78,14.83,0,6.88-4.65,10.45-13.49,10.45s-13.58-3.44-13.58-9.57Z"/>
          <path class="cls-1" d="M458.25,242.89v-43.22h-11.3v-3.98h28.78v3.98h-11.3v43.22h-6.17Z"/>
          <path class="cls-1" d="M486.75,195.69h6.17v47.2h-6.17v-47.2Z"/>
          <path class="cls-1" d="M515.24,242.89v-43.22h-11.3v-3.98h28.78v3.98h-11.3v43.22h-6.17Z"/>
          <path class="cls-1" d="M571.85,230.89c0,9.04-4.18,12.68-14.25,12.68s-14.34-3.64-14.34-12.68v-35.2h6.17v35.27c0,6.14,2.28,8.56,8.17,8.56s8.07-2.43,8.07-8.56v-35.27h6.17v35.2Z"/>
          <path class="cls-1" d="M593.79,242.89v-43.22h-11.3v-3.98h28.78v3.98h-11.3v43.22h-6.17Z"/>
          <path class="cls-1" d="M619.63,221.18v-3.78c0-15.91,4.27-22.39,15.1-22.39s14.91,6.47,14.91,22.39v3.78c0,15.91-4.27,22.39-14.91,22.39s-15.1-6.47-15.1-22.39ZM643.18,221.11v-3.64c0-13.22-2.37-18.41-8.55-18.41s-8.55,5.19-8.55,18.41v3.64c0,13.22,2.47,18.41,8.55,18.41s8.55-5.19,8.55-18.41Z"/>
          <path class="cls-1" d="M689.16,242.89v-43.22h-11.3v-3.98h28.78v3.98h-11.3v43.22h-6.17Z"/>
          <path class="cls-1" d="M723.83,220.37v18.34h16.43v4.18h-22.61v-47.27h22.13v4.18h-15.96v16.72h14.53v3.84h-14.53Z"/>
          <path class="cls-1" d="M750.61,221.18v-3.78c0-15.64,4.37-22.39,14.44-22.39,9.21,0,13.87,5.66,13.87,16.99v.94h-5.89v-.94c0-8.7-2.56-12.95-7.69-12.95-5.89,0-8.26,5.6-8.26,18.47v3.57c0,13.49,2.57,18.48,8.26,18.41,5.42,0,7.69-4.38,7.69-14.97v-.94h5.89v.94c0,13.01-4.37,19.01-13.87,19.01-10.07,0-14.44-6.74-14.44-22.39Z"/>
          <path class="cls-1" d="M797.25,205.13v37.76h-5.7v-47.2h7.5l15.01,36.55h.67v-36.55h5.7v47.2h-6.65l-15.86-37.76h-.67Z"/>
          <path class="cls-1" d="M833.06,221.18v-3.78c0-15.91,4.27-22.39,15.1-22.39s14.91,6.47,14.91,22.39v3.78c0,15.91-4.27,22.39-14.91,22.39s-15.1-6.47-15.1-22.39ZM856.62,221.11v-3.64c0-13.22-2.37-18.41-8.55-18.41s-8.55,5.19-8.55,18.41v3.64c0,13.22,2.47,18.41,8.55,18.41s8.55-5.19,8.55-18.41Z"/>
          <path class="cls-1" d="M875.71,242.89v-47.2h6.17v43.22h16.05v3.98h-22.23Z"/>
          <path class="cls-1" d="M906.96,221.18v-3.78c0-15.91,4.27-22.39,15.1-22.39s14.91,6.47,14.91,22.39v3.78c0,15.91-4.27,22.39-14.91,22.39s-15.1-6.47-15.1-22.39ZM930.52,221.11v-3.64c0-13.22-2.37-18.41-8.55-18.41s-8.55,5.19-8.55,18.41v3.64c0,13.22,2.47,18.41,8.55,18.41s8.55-5.19,8.55-18.41ZM919.4,189.89l3.8-7.55h6.36l-5.22,7.55h-4.94Z"/>
          <path class="cls-1" d="M964.33,222.39v-3.64h13.01v24.14h-4.46l-.38-5.39-.38-.13c-1.9,4.25-5.32,6.2-10.64,6.2-9.59,0-13.58-6.54-13.58-22.39v-3.78c0-15.98,4.37-22.39,15.1-22.39,9.59,0,14.25,5.19,14.25,16.32v.94h-5.89v-.74c0-8.16-2.85-12.47-8.26-12.47-6.08,0-8.74,5.6-8.74,18.47v3.51c0,13.08,2.75,18.54,9.02,18.48,5.51,0,8.07-4.25,8.07-12.95v-.47h.09v-3.71h-7.22Z"/>
          <path class="cls-1" d="M991.31,195.69h6.17v47.2h-6.17v-47.2Z"/>
          <path class="cls-1" d="M1010.11,221.18v-3.78c0-15.64,4.37-22.39,14.44-22.39,9.21,0,13.87,5.66,13.87,16.99v.94h-5.89v-.94c0-8.7-2.56-12.95-7.69-12.95-5.89,0-8.26,5.6-8.26,18.47v3.57c0,13.49,2.57,18.48,8.26,18.41,5.42,0,7.69-4.38,7.69-14.97v-.94h5.89v.94c0,13.01-4.37,19.01-13.87,19.01-10.07,0-14.44-6.74-14.44-22.39Z"/>
          <path class="cls-1" d="M1049.34,221.18v-3.78c0-15.91,4.27-22.39,15.1-22.39s14.91,6.47,14.91,22.39v3.78c0,15.91-4.27,22.39-14.91,22.39s-15.1-6.47-15.1-22.39ZM1072.9,221.11v-3.64c0-13.22-2.37-18.41-8.55-18.41s-8.55,5.19-8.55,18.41v3.64c0,13.22,2.47,18.41,8.55,18.41s8.55-5.19,8.55-18.41Z"/>
        </g>
      </g>
    </g>
  </g>
</svg>