<svg width="75" height="75" viewBox="0 0 75 75" fill="none" xmlns="http://www.w3.org/2000/svg">
<path d="M66.8379 16.0293L63.4605 28.9358L60.0697 41.8692L58.0861 49.4549L52.3767 52.1086L37.5134 59.5604H37.5L22.6367 52.1086L16.9273 49.4415L14.9437 41.8558L11.5529 28.9224L8.17548 16.0159C11.1106 16.1767 13.5767 18.1469 14.4612 20.8273L14.6757 21.6449L21.149 46.3992L37.5134 58.3944L53.8778 46.3992L60.3645 21.6449L60.579 20.8407C61.4635 18.1469 63.9162 16.1767 66.8513 16.0293H66.8379Z" fill="#B3B3B3"/>
<path d="M37.5 62.9648L13.5767 53.4357L11.9282 47.1365L9.50232 37.8889L7.43834 30.0216C7.43834 30.0216 7.31772 30.0216 7.26411 30.0082C7.26411 29.566 7.1971 29.1237 7.10328 28.7082L6.98266 28.2257C6.98266 28.2257 6.98266 28.1855 6.96926 28.1721C6.13831 25.4782 3.71247 23.4813 0.804138 23.2668C0.817541 23.7627 0.884553 24.2452 1.00517 24.7143L1.04538 24.8751L3.24338 33.2918L3.99392 36.1734L6.16511 44.4427L8.10846 51.881L9.3951 56.8131L37.5 64.1308L65.6049 56.8131L66.8915 51.881L68.8349 44.4427L71.0061 36.1734L71.7566 33.2918L73.9814 24.7679C74.102 24.2854 74.1824 23.7761 74.1959 23.2534C71.2875 23.4679 68.8885 25.4514 68.0441 28.1319L67.8699 28.7886V28.8154C67.7895 29.2041 67.7493 29.5928 67.7359 29.9948C67.6823 29.9948 67.6153 29.9948 67.5616 29.9948L65.4977 37.8621L63.0718 47.1097L61.4233 53.4089L37.4866 62.938L37.5 62.9648Z" fill="#B3B3B3"/>
<path d="M52.6582 27.5822C52.752 28.1317 52.7922 28.6946 52.7922 29.2709C52.7922 31.4153 52.1489 33.4123 51.0499 35.0742C50.755 35.5298 50.42 35.9587 50.0447 36.3474C49.656 36.7763 49.2405 37.1649 48.7849 37.5268C48.7044 37.5938 48.6106 37.6608 48.5302 37.7278C48.5704 37.433 48.5972 37.1247 48.5972 36.8031C48.5972 34.7391 47.6993 32.8896 46.2652 31.6297C46.1982 31.5761 46.1312 31.5091 46.0642 31.4555C45.9167 31.3349 45.7693 31.2277 45.6219 31.1204C45.6085 31.1204 45.5951 31.0936 45.5817 31.0936C45.5281 31.0534 45.4745 31.0266 45.4074 30.9864L34.0422 22.7439L26.376 17.1819L26.309 17.1283C25.8667 17.7582 25.6121 18.5222 25.6121 19.3397C25.6121 19.6078 25.6389 19.8624 25.6925 20.1036C25.7059 20.1975 25.7327 20.2779 25.7461 20.3583C25.8399 20.7202 25.9873 21.0552 26.1884 21.3769C26.9791 22.8511 28.2791 24.0038 29.8606 24.6069C29.8606 24.6069 29.8606 24.6069 29.874 24.6069C29.9812 24.6471 30.0751 24.6739 30.1823 24.7141C30.1957 24.7141 30.2091 24.7275 30.2359 24.7275C32.8494 25.7059 34.7123 28.2255 34.7123 31.1875C34.7123 33.3184 33.7473 35.235 32.2195 36.4948C31.7906 36.8567 31.3215 37.1515 30.7988 37.4062C29.9008 37.8351 28.8822 38.0763 27.8235 38.0763C27.5018 38.0763 27.1935 38.0495 26.8853 38.0093C26.577 37.9691 26.2688 37.9021 25.9873 37.8217C24.9955 37.5402 24.0842 37.0443 23.3336 36.3876C23.4275 36.2134 23.5213 36.0257 23.6017 35.8381C23.6419 35.7443 23.6821 35.6371 23.7223 35.5432C23.7491 35.4896 23.7625 35.4226 23.7893 35.369C23.8429 35.2082 23.8831 35.0474 23.9233 34.8865C23.977 34.6587 24.0172 34.4174 24.044 34.1762C24.044 34.0824 24.0708 33.9886 24.0708 33.8947C24.0708 33.8679 24.0708 33.8411 24.0708 33.8143C24.0708 33.6937 24.0708 33.5731 24.0708 33.4391C24.0708 33.0102 24.0306 32.5813 23.9368 32.1658C23.8429 31.7236 23.7089 31.3081 23.5347 30.9194C23.4945 30.839 23.4677 30.7586 23.4275 30.6782C23.4275 30.6782 23.4275 30.6514 23.4141 30.6514C22.8914 29.5256 22.5161 28.3059 22.3285 27.0327C22.3285 26.9523 22.3017 26.8853 22.3017 26.8049C22.2614 26.5368 22.248 26.2554 22.2212 25.9873C22.2212 25.8533 22.2078 25.7193 22.1944 25.5852C22.181 25.4512 22.1944 25.3172 22.1944 25.1832C22.1944 24.9687 22.1944 24.7677 22.2078 24.5533C22.3553 21.4573 23.5883 18.6562 25.5316 16.4984C25.5584 16.5118 25.5718 16.5386 25.5987 16.552C25.5987 16.552 25.5987 16.5386 25.5987 16.5252L25.545 16.485C25.545 16.485 25.5316 16.485 25.5182 16.4716C25.478 16.4314 25.4244 16.3912 25.3842 16.351C24.2182 15.319 23.2934 14.0323 22.6769 12.5849C22.1408 11.3251 21.8594 9.9446 21.8594 8.49714C21.8594 6.35275 22.5027 4.35579 23.6017 2.69389C24.2048 1.79593 24.9419 0.978377 25.7863 0.308256C25.8935 0.214439 26.0141 0.120622 26.1347 0.0402076C26.0945 0.335061 26.0677 0.643317 26.0677 0.951573C26.0677 1.17941 26.0677 1.40725 26.1079 1.6351C26.1884 2.47945 26.4162 3.27019 26.7781 3.99392C27.2606 4.9723 27.9575 5.81666 28.8286 6.47337L29.0297 6.6208L40.6228 15.0375L42.6868 16.5252L44.8177 13.4694L44.8445 13.4426C43.2899 12.0354 42.1507 10.159 41.6548 8.04146C41.6012 7.63939 41.5609 7.22391 41.5609 6.80844C41.5609 5.07952 42.0836 3.47123 42.9682 2.14439C43.3301 1.59489 43.7589 1.099 44.228 0.643317C44.4693 0.415475 44.7239 0.201036 44.992 0C44.9518 0.241244 44.9384 0.482488 44.9384 0.737134C44.9384 0.884561 44.9384 1.03199 44.9518 1.16601C45.0724 2.80111 45.9167 4.23517 47.1498 5.17334L47.3106 5.29396C49.5756 7.22391 53.0736 9.18067 53.0736 12.3838C53.0736 13.7107 52.8324 14.9839 52.3767 16.1499C52.0953 16.8871 51.7334 17.5706 51.3045 18.2139L46.1982 14.5014L44.0672 17.5438L48.2756 20.5995L48.691 20.9078C50.7818 22.5027 52.2695 24.8749 52.6984 27.5956L52.6582 27.5822Z" fill="#B3B3B3"/>
<path d="M19.7552 69.9875C19.7552 69.3844 19.7552 68.8081 19.715 68.1916C19.648 67.3204 19.5408 67.0256 18.6026 67.0256H16.753C15.7747 67.0256 15.3592 66.9317 15.0375 66.5699L15.8283 64.3987H16.1767C16.4448 64.8812 16.6458 64.975 17.45 64.975H19.1789C20.5057 64.975 21.082 65.6049 21.082 67.0256C21.082 67.7359 21.0418 68.2318 21.0418 69.0091C21.0418 69.6122 21.082 70.0679 21.1893 70.9525L20.1707 72.0381H19.8356C19.7552 71.5288 19.7552 70.8453 19.7552 70.0009V69.9875ZM15.6138 70.3762C15.6138 69.9205 15.6138 69.4514 15.6675 68.9823L16.7933 67.9905H17.1015C17.0747 68.4462 17.0747 68.9153 17.0747 69.3844C17.0747 69.8535 17.0747 70.3494 17.1283 70.8318L16.0025 72.0247H15.6675C15.6272 71.4752 15.6138 70.9257 15.6138 70.3762Z" fill="#B3B3B3"/>
<path d="M26.4832 72.8825C27.2606 72.8423 28.1719 72.8155 29.0565 72.8155H29.6462V71.0598C29.6462 70.1752 29.4317 69.9474 28.6678 69.9474H27.5018C26.7513 69.9474 26.443 69.8536 26.1347 69.4649L26.8987 67.3071H27.2069C27.4214 67.7494 27.676 67.8834 28.2791 67.8834H29.606C30.6246 67.8834 31.1204 68.3391 31.1204 69.4381C31.1204 70.1887 30.973 71.1134 30.973 71.8371C30.973 72.5609 31.2143 72.8557 31.8978 72.8557L31.6163 74.7991H28.2523C27.341 74.7991 26.6842 74.7991 26.0275 74.8259L26.4966 72.8691L26.4832 72.8825Z" fill="#B3B3B3"/>
<path d="M36.9505 74.5707C37.3392 73.6862 37.6206 73.0696 37.6206 72.5469C37.6206 72.2521 37.5 72.0779 37.2051 71.9036L36.8701 71.716C36.5082 71.5016 36.2938 71.3139 36.2402 71.1665L37.0577 69.2231H37.366C37.3928 69.4108 37.5 69.585 37.9155 69.8128L38.5722 70.1613C38.9743 70.3757 39.2557 70.6572 39.2691 71.3005C39.3093 72.3727 38.5722 74.0748 37.2856 74.7717L36.9505 74.5573V74.5707Z" fill="#B3B3B3"/>
<path d="M45.1662 72.2387L45.059 71.1531C44.992 70.5231 44.8312 70.1881 44.4291 69.8128C44.2146 69.6118 43.9734 69.3571 43.8796 69.1963L44.6569 67.2664H44.9786C45.059 67.5344 45.2198 67.7086 45.4477 67.8963L45.7157 68.0839C46.158 68.419 46.2116 68.7406 46.2116 69.0757C46.2116 69.518 46.1714 69.9871 46.1848 70.4293C46.2384 72.1716 46.9353 73.0562 48.1147 73.0562C49.5622 73.0562 50.487 71.9974 50.487 70.6304C50.487 70.2685 50.2993 70.0005 50.0849 69.8128C49.8303 69.585 49.6828 69.3839 49.6158 69.1293L50.42 67.2664H50.7282C50.7952 67.4942 50.8488 67.7086 51.1303 68.0303L51.3849 68.2983C51.8138 68.7808 51.9746 69.1159 51.9746 69.8798C51.9746 71.6758 50.4066 74.9996 47.8065 74.9996C46.359 74.9996 45.3538 74.115 45.1796 72.2387H45.1662ZM47.19 72.1716C47.3642 71.8232 47.6591 71.2201 47.6591 70.5366C47.6591 70.0809 47.525 69.9334 47.2704 69.719C47.0425 69.518 46.8817 69.3437 46.8281 69.0623L47.4982 67.2664H47.8601C47.9405 67.5478 48.0477 67.7488 48.3024 67.9499L48.5838 68.1643C48.9457 68.4592 49.0663 68.7272 49.0663 69.4644C49.0663 70.7376 48.1281 71.9572 47.4982 72.3459L47.19 72.1582V72.1716Z" fill="#B3B3B3"/>
<path d="M57.215 69.7997C57.6036 68.9152 57.8851 68.2986 57.8851 67.776C57.8851 67.4811 57.7645 67.3069 57.4696 67.1326L57.1346 66.945C56.7727 66.7306 56.5582 66.5429 56.5046 66.3955L57.3222 64.4521H57.6304C57.6572 64.6398 57.7645 64.814 58.1799 65.0419L58.8367 65.3903C59.2387 65.6048 59.5202 65.8862 59.5336 66.5295C59.5738 67.6017 58.8367 69.3038 57.55 70.0008L57.215 69.7863V69.7997Z" fill="#B3B3B3"/>
</svg>
