<svg width="140" height="140" viewBox="0 0 140 140" fill="none" xmlns="http://www.w3.org/2000/svg">
<path d="M140 70C140 31.3401 108.66 0 70 0C31.3401 0 0 31.3401 0 70C0 108.66 31.3401 140 70 140C108.66 140 140 108.66 140 70Z" fill="#1B3863"/>
<path d="M46.2021 104.018H60.9082L59.4216 101.085C58.4926 99.253 58.0015 97.1957 58.0015 95.1385V73.8226C58.0015 71.606 59.5677 69.6682 61.6382 69.3497C62.6735 69.1904 63.7353 69.3895 64.6113 69.9337V69.6019C64.6113 67.3721 66.1774 65.4475 68.2612 65.129C69.3098 64.9697 70.3583 65.1821 71.2343 65.713V65.2617C71.2343 63.0319 72.8005 61.1074 74.8843 60.7756C76.1452 60.5765 77.4459 60.9348 78.4015 61.7577C79.3704 62.5806 79.9279 63.7885 79.9279 65.0626V67.1464C80.8172 66.6023 81.879 66.3899 82.9143 66.5624C84.9848 66.8943 86.5377 68.8188 86.5377 71.0353V77.1938C87.5862 76.4373 88.9002 76.1586 90.1744 76.4373C92.3511 76.9151 93.9306 79.052 93.9306 81.5207V96.0676C93.9306 98.2177 93.1475 100.248 91.7406 101.775L89.5373 104.005H105.73V42.7778H46.1755V104.005L46.2021 104.018Z" fill="#F2F2F2"/>
<path d="M46.2021 104.018H60.9082L59.4216 101.085C58.4926 99.253 58.0015 97.1957 58.0015 95.1385V73.8226C58.0015 71.606 59.5677 69.6682 61.6382 69.3497C62.6735 69.1904 63.7353 69.3895 64.6113 69.9337V69.6019C64.6113 67.3721 66.1774 65.4475 68.2612 65.129C69.3098 64.9697 70.3583 65.1821 71.2343 65.713V65.2617C71.2343 63.0319 72.8005 61.1074 74.8843 60.7756C76.1452 60.5765 77.4459 60.9348 78.4015 61.7577C79.3704 62.5806 79.9279 63.7885 79.9279 65.0626V67.1464C80.8172 66.6023 81.879 66.3899 82.9143 66.5624C84.9848 66.8943 86.5377 68.8188 86.5377 71.0353V77.1938C87.5862 76.4373 88.9002 76.1586 90.1744 76.4373C92.3511 76.9151 93.9306 79.052 93.9306 81.5207V96.0676C93.9306 98.2177 93.1475 100.248 91.7406 101.775L89.5373 104.005H105.73V42.7778H46.1755V104.005L46.2021 104.018Z" stroke="#1B3863" stroke-miterlimit="10"/>
<path d="M37.8801 35.0929C37.8801 38.1987 40.4019 40.7205 43.5077 40.7205H103.474C102.08 37.2961 102.08 32.9029 103.474 29.4785H43.5077C40.4019 29.4785 37.8801 32.0003 37.8801 35.1061V35.0929Z" fill="#F2F2F2"/>
<path d="M37.8801 35.0929C37.8801 38.1987 40.4019 40.7205 43.5077 40.7205H103.474C102.08 37.2961 102.08 32.9029 103.474 29.4785H43.5077C40.4019 29.4785 37.8801 32.0003 37.8801 35.1061V35.0929Z" stroke="#1B3863" stroke-miterlimit="10"/>
<path d="M43.4945 42.7909C41.278 42.7909 39.2738 41.8485 37.8669 40.3354V98.3901C37.8669 101.496 40.3887 104.018 43.4945 104.018H44.1184V42.7909H43.4945Z" fill="#F2F2F2"/>
<path d="M43.4945 42.7909C41.278 42.7909 39.2738 41.8485 37.8669 40.3354V98.3901C37.8669 101.496 40.3887 104.018 43.4945 104.018H44.1184V42.7909H43.4945Z" stroke="#1B3863" stroke-miterlimit="10"/>
<path d="M84.4806 109.035C84.4806 107.203 85.184 105.491 86.4715 104.19L90.2542 100.354C91.2762 99.2528 91.8735 97.6866 91.8735 96.0806V81.5338C91.8735 80.0605 90.9709 78.7465 89.7631 78.4811C89.0198 78.3218 88.2766 78.4811 87.666 78.9722C86.9758 79.5296 86.5644 80.4322 86.5644 81.3745V84.8785V89.7894C86.5644 90.9574 86.1397 92.0457 85.3831 92.8819L83.9099 94.4879C83.7108 94.7135 83.4188 94.8197 83.14 94.8197C82.8878 94.8197 82.6357 94.7268 82.4366 94.541C82.0119 94.1561 81.9853 93.4924 82.3835 93.0677L83.8568 91.4617C84.2549 91.0237 84.4939 90.4132 84.4939 89.7894V84.8918V71.0351C84.4939 69.8273 83.6842 68.792 82.6091 68.6195C81.919 68.5133 81.2686 68.6858 80.751 69.1238C80.2466 69.5618 79.9546 70.1857 79.9546 70.8493V83.153C79.9546 83.7238 79.49 84.1883 78.906 84.1883C78.3221 84.1883 77.8708 83.7238 77.8708 83.153V65.0491C77.8708 64.3855 77.5788 63.7617 77.0744 63.3237C76.5568 62.8857 75.9064 62.6999 75.2295 62.8061C74.1545 62.9786 73.3448 64.0139 73.3448 65.235V69.4026V83.0734C73.3448 83.6441 72.8803 84.1087 72.3095 84.1087C71.7388 84.1087 71.2743 83.6441 71.2743 83.0734V69.4026C71.2743 68.7389 70.9823 68.1151 70.4779 67.6771C69.9603 67.2391 69.3099 67.0666 68.6197 67.1595C67.5447 67.332 66.735 68.3673 66.735 69.5751V84.175C66.735 84.7458 66.2705 85.2103 65.6998 85.2103C65.1291 85.2103 64.6645 84.7458 64.6645 84.175V73.6233C64.6645 72.9596 64.3725 72.3226 63.8681 71.8978C63.3505 71.4598 62.7002 71.274 62.01 71.3802C60.9349 71.5527 60.1252 72.588 60.1252 73.7958V95.1117C60.1252 96.8372 60.5367 98.5759 61.3198 100.116L63.3107 104.057C64.2398 105.889 64.7309 107.946 64.7309 109.99V114.158H84.5204V109.008L84.4806 109.035Z" fill="#F2F2F2"/>
<path d="M84.4806 109.035C84.4806 107.203 85.184 105.491 86.4715 104.19L90.2542 100.354C91.2762 99.2528 91.8735 97.6866 91.8735 96.0806V81.5338C91.8735 80.0605 90.9709 78.7465 89.7631 78.4811C89.0198 78.3218 88.2766 78.4811 87.666 78.9722C86.9758 79.5296 86.5644 80.4322 86.5644 81.3745V84.8785V89.7894C86.5644 90.9574 86.1397 92.0457 85.3831 92.8819L83.9099 94.4879C83.7108 94.7135 83.4188 94.8197 83.14 94.8197C82.8878 94.8197 82.6357 94.7268 82.4366 94.541C82.0119 94.1561 81.9853 93.4924 82.3835 93.0677L83.8568 91.4617C84.2549 91.0237 84.4939 90.4132 84.4939 89.7894V84.8918V71.0351C84.4939 69.8273 83.6842 68.792 82.6091 68.6195C81.919 68.5133 81.2686 68.6858 80.751 69.1238C80.2466 69.5618 79.9546 70.1857 79.9546 70.8493V83.153C79.9546 83.7238 79.49 84.1883 78.906 84.1883C78.3221 84.1883 77.8708 83.7238 77.8708 83.153V65.0491C77.8708 64.3855 77.5788 63.7617 77.0744 63.3237C76.5568 62.8857 75.9064 62.6999 75.2295 62.8061C74.1545 62.9786 73.3448 64.0139 73.3448 65.235V69.4026V83.0734C73.3448 83.6441 72.8803 84.1087 72.3095 84.1087C71.7388 84.1087 71.2743 83.6441 71.2743 83.0734V69.4026C71.2743 68.7389 70.9823 68.1151 70.4779 67.6771C69.9603 67.2391 69.3099 67.0666 68.6197 67.1595C67.5447 67.332 66.735 68.3673 66.735 69.5751V84.175C66.735 84.7458 66.2705 85.2103 65.6998 85.2103C65.1291 85.2103 64.6645 84.7458 64.6645 84.175V73.6233C64.6645 72.9596 64.3725 72.3226 63.8681 71.8978C63.3505 71.4598 62.7002 71.274 62.01 71.3802C60.9349 71.5527 60.1252 72.588 60.1252 73.7958V95.1117C60.1252 96.8372 60.5367 98.5759 61.3198 100.116L63.3107 104.057C64.2398 105.889 64.7309 107.946 64.7309 109.99V114.158H84.5204V109.008L84.4806 109.035Z" stroke="#1B3863" stroke-miterlimit="10"/>
<path d="M105.756 42.5654C105.756 42.5654 105.703 42.6185 105.663 42.6451C105.491 42.7512 105.305 42.7911 105.133 42.7911H105.756V42.5654Z" fill="#F2F2F2" stroke="#1B3863" stroke-miterlimit="10"/>
</svg>
