<svg width="140" height="140" viewBox="0 0 140 140" fill="none" xmlns="http://www.w3.org/2000/svg">
<path d="M140 70C140 31.3401 108.66 0 70 0C31.3401 0 0 31.3401 0 70C0 108.66 31.3401 140 70 140C108.66 140 140 108.66 140 70Z" fill="#1B3863"/>
<path d="M96.3462 39.3268C99.4121 39.3268 101.907 36.8316 101.907 33.7656C101.907 30.6996 99.4121 28.2043 96.3462 28.2043C93.2802 28.2043 90.7849 30.6996 90.7849 33.7656C90.7849 36.8316 93.2802 39.3268 96.3462 39.3268Z" fill="#F2F2F2"/>
<path d="M96.3462 39.3268C99.4121 39.3268 101.907 36.8316 101.907 33.7656C101.907 30.6996 99.4121 28.2043 96.3462 28.2043C93.2802 28.2043 90.7849 30.6996 90.7849 33.7656C90.7849 36.8316 93.2802 39.3268 96.3462 39.3268Z" stroke="#1B3863" stroke-width="1.09" stroke-miterlimit="10"/>
<path d="M68.9779 70.2655C68.1816 70.0797 67.425 69.6948 66.8145 69.071C65.0492 67.3057 65.0492 64.4388 66.8145 62.6735L71.6457 57.8423H38.1057V83.1665C38.1057 88.0508 42.0743 92.0194 46.9586 92.0194H48.6044C49.1752 92.0194 49.6397 92.4839 49.6397 93.0546V101.908H57.4573V94.0899H55.1876C54.6169 94.0899 54.1524 93.6254 54.1524 93.0546C54.1524 92.4839 54.6169 92.0194 55.1876 92.0194H60.1251C65.0094 92.0194 68.9779 88.0508 68.9779 83.1665V70.2655Z" fill="#F2F2F2"/>
<path d="M68.9779 70.2655C68.1816 70.0797 67.425 69.6948 66.8145 69.071C65.0492 67.3057 65.0492 64.4388 66.8145 62.6735L71.6457 57.8423H38.1057V83.1665C38.1057 88.0509 42.0743 92.0194 46.9586 92.0194H48.6044C49.1752 92.0194 49.6397 92.4839 49.6397 93.0546V101.908H57.4573V94.0899H55.1876C54.6169 94.0899 54.1524 93.6254 54.1524 93.0546C54.1524 92.4839 54.6169 92.0194 55.1876 92.0194H60.1251C65.0094 92.0194 68.9779 88.0509 68.9779 83.1665V70.2655Z" stroke="#1B3863" stroke-width="1.09" stroke-miterlimit="10"/>
<path d="M36.0353 64.4387H28.2178V73.2916C28.2178 77.8308 31.6421 81.5737 36.0353 82.0781V64.4387Z" fill="#F2F2F2"/>
<path d="M36.0353 64.4387H28.2178V73.2916C28.2178 77.8308 31.6421 81.5737 36.0353 82.0781V64.4387Z" stroke="#1B3863" stroke-width="1.09" stroke-miterlimit="10"/>
<path d="M48.5912 103.965H41.3975V111.782H65.6864V103.965H58.4794H48.5912Z" fill="#F2F2F2"/>
<path d="M48.5912 103.965H41.3975V111.782H65.6864V103.965H58.4794H48.5912Z" stroke="#1B3863" stroke-width="1.09" stroke-miterlimit="10"/>
<path d="M71.0354 70.2654V82.0781C75.4287 81.5604 78.853 77.8176 78.853 73.2916V63.4565L73.1989 69.0841C72.575 69.708 71.8185 70.0929 71.0354 70.2787V70.2654Z" fill="#F2F2F2"/>
<path d="M71.0354 70.2654V82.0781C75.4287 81.5604 78.853 77.8176 78.853 73.2916V63.4565L73.1989 69.0841C72.575 69.708 71.8185 70.0929 71.0354 70.2787V70.2654Z" stroke="#1B3863" stroke-width="1.09" stroke-miterlimit="10"/>
<path d="M102.943 46.3215H90.4264C87.6259 46.3215 84.9846 47.4099 83.007 49.4008L68.2743 64.1334C67.3187 65.0891 67.3187 66.6552 68.2743 67.6109C69.23 68.5665 70.7961 68.5665 71.7518 67.6109L84.759 54.6037C85.3562 54.0064 86.2587 53.8206 87.0418 54.1524C87.8249 54.4709 88.3293 55.2275 88.3293 56.0769V108.69C88.3293 110.389 89.7097 111.782 91.4219 111.782H92.2448C93.9437 111.782 95.3372 110.402 95.3372 108.69V78.229C95.3372 77.6583 95.8018 77.1937 96.3725 77.1937C96.9433 77.1937 97.4078 77.6583 97.4078 78.229V108.69C97.4078 110.389 98.7881 111.782 100.5 111.782H101.323C103.022 111.782 104.416 110.402 104.416 108.69V55.1744C104.416 54.6037 104.88 54.1391 105.451 54.1391C106.022 54.1391 106.486 54.6037 106.486 55.1744V77.1141C109.512 76.623 111.835 73.9818 111.835 70.8229V55.1744C111.835 50.2901 107.867 46.3215 102.982 46.3215H102.943Z" fill="#F2F2F2"/>
<path d="M102.943 46.3215H90.4264C87.6259 46.3215 84.9846 47.4099 83.007 49.4008L68.2743 64.1334C67.3187 65.0891 67.3187 66.6552 68.2743 67.6109C69.23 68.5665 70.7961 68.5665 71.7518 67.6109L84.759 54.6037C85.3562 54.0064 86.2587 53.8206 87.0418 54.1524C87.8249 54.4709 88.3293 55.2275 88.3293 56.0769V108.69C88.3293 110.389 89.7097 111.782 91.4219 111.782H92.2448C93.9437 111.782 95.3372 110.402 95.3372 108.69V78.229C95.3372 77.6583 95.8018 77.1937 96.3725 77.1937C96.9433 77.1937 97.4078 77.6583 97.4078 78.229V108.69C97.4078 110.389 98.7881 111.782 100.5 111.782H101.323C103.022 111.782 104.416 110.402 104.416 108.69V55.1744C104.416 54.6037 104.88 54.1391 105.451 54.1391C106.022 54.1391 106.486 54.6037 106.486 55.1744V77.1141C109.512 76.623 111.835 73.9818 111.835 70.8229V55.1744C111.835 50.2901 107.867 46.3215 102.982 46.3215H102.943Z" stroke="#1B3863" stroke-width="1.09" stroke-miterlimit="10"/>
</svg>
