<svg width="140" height="140" viewBox="0 0 140 140" fill="none" xmlns="http://www.w3.org/2000/svg">
<path d="M140 70C140 31.3401 108.66 0 70 0C31.3401 0 0 31.3401 0 70C0 108.66 31.3401 140 70 140C108.66 140 140 108.66 140 70Z" fill="#1B3863"/>
<path d="M111.61 89.8958C111.012 89.3915 108.942 90.3736 106.327 91.5947C102.027 93.6122 95.5366 96.6516 85.4494 98.5496C84.6928 98.6823 80.3926 99.4256 75.2694 99.4256C71.7654 99.4256 67.8763 99.0805 64.4918 97.9523C63.9476 97.7665 63.6424 97.1825 63.8282 96.6383C64.014 96.0941 64.5981 95.7889 65.1423 95.9747C71.4999 98.085 80.6579 97.302 85.0644 96.4923C86.6306 96.1871 87.4271 94.4351 87.1749 92.9751C86.9094 91.3691 85.5955 90.6391 83.5648 90.9311C73.0528 92.5105 69.5753 90.2807 65.5404 87.6926C61.5453 85.1309 57.0327 82.2242 43.5078 82.4499V103.766C48.8169 105.398 83.1665 114.795 110.15 94.1165C110.747 93.7183 112.313 92.4043 112.366 91.2496C112.366 91.0771 112.406 90.5462 111.61 89.8958Z" fill="#F2F2F2"/>
<path d="M111.61 89.8958C111.012 89.3915 108.942 90.3736 106.327 91.5947C102.027 93.6122 95.5366 96.6516 85.4494 98.5496C84.6928 98.6823 80.3926 99.4256 75.2694 99.4256C71.7654 99.4256 67.8763 99.0805 64.4918 97.9523C63.9476 97.7665 63.6424 97.1825 63.8282 96.6383C64.014 96.0941 64.5981 95.7889 65.1423 95.9747C71.4999 98.085 80.6579 97.302 85.0644 96.4923C86.6306 96.1871 87.4271 94.4351 87.1749 92.9751C86.9094 91.3691 85.5955 90.6391 83.5648 90.9311C73.0528 92.5105 69.5753 90.2807 65.5404 87.6926C61.5453 85.1309 57.0327 82.2242 43.5078 82.4499V103.766C48.8169 105.398 83.1665 114.795 110.15 94.1165C110.747 93.7183 112.313 92.4043 112.366 91.2496C112.366 91.0771 112.406 90.5462 111.61 89.8958Z" stroke="#1B3863" stroke-width="0.94" stroke-miterlimit="10"/>
<path d="M97.0099 32.6641C91.608 32.6641 86.5378 35.5177 83.7771 40.0967C83.5913 40.4153 83.2463 40.6011 82.888 40.6011C82.5296 40.6011 82.1845 40.4153 81.9986 40.0967C79.2379 35.5044 74.1678 32.6641 68.7658 32.6641C60.2979 32.6641 53.396 39.4198 53.396 47.7418C53.396 64.5848 78.9593 79.928 82.888 82.1843C86.8167 79.928 112.38 64.5848 112.38 47.7418C112.38 39.4331 105.491 32.6641 97.0099 32.6641Z" fill="#F2F2F2"/>
<path d="M97.0099 32.6641C91.608 32.6641 86.5378 35.5177 83.7771 40.0967C83.5913 40.4153 83.2463 40.6011 82.888 40.6011C82.5296 40.6011 82.1845 40.4153 81.9986 40.0967C79.2379 35.5044 74.1678 32.6641 68.7658 32.6641C60.2979 32.6641 53.396 39.4198 53.396 47.7418C53.396 64.5848 78.9593 79.928 82.888 82.1843C86.8167 79.928 112.38 64.5848 112.38 47.7418C112.38 39.4331 105.491 32.6641 97.0099 32.6641Z" stroke="#1B3863" stroke-width="0.94" stroke-miterlimit="10"/>
<path d="M89.2321 92.6435C89.4047 93.6389 89.272 94.7273 88.8606 95.7095C96.5587 93.8778 101.801 91.4224 105.425 89.7235C105.956 89.4713 106.434 89.2457 106.911 89.0333C107.283 88.5555 108.199 87.1353 107.097 86.0337C106.274 85.2108 104.031 86.1532 100.939 87.4672C97.9922 88.7148 94.0103 90.3739 88.887 91.5684C89.033 91.9268 89.1525 92.2719 89.2188 92.6302L89.2321 92.6435Z" fill="#F2F2F2"/>
<path d="M89.2321 92.6435C89.4047 93.6389 89.272 94.7273 88.8606 95.7095C96.5587 93.8778 101.801 91.4224 105.425 89.7235C105.956 89.4713 106.434 89.2457 106.911 89.0333C107.283 88.5555 108.199 87.1353 107.097 86.0337C106.274 85.2108 104.031 86.1532 100.939 87.4672C97.9922 88.7148 94.0103 90.3739 88.887 91.5684C89.033 91.9268 89.1525 92.2719 89.2188 92.6302L89.2321 92.6435Z" stroke="#1B3863" stroke-width="0.94" stroke-miterlimit="10"/>
<path d="M41.4241 81.72C41.4241 81.3749 41.1453 81.0962 40.8002 81.0962H28.2576C27.9125 81.0962 27.6338 81.3749 27.6338 81.72V104.31C27.6338 104.655 27.9125 104.934 28.2576 104.934H40.8002C41.1453 104.934 41.4241 104.655 41.4241 104.31V81.72ZM36.6061 101.748C35.6903 101.748 34.9338 101.005 34.9338 100.076C34.9338 99.147 35.677 98.4037 36.6061 98.4037C37.5352 98.4037 38.2783 99.147 38.2783 100.076C38.2783 101.005 37.5352 101.748 36.6061 101.748Z" fill="#F2F2F2"/>
<path d="M41.4241 81.72C41.4241 81.3749 41.1453 81.0962 40.8002 81.0962H28.2576C27.9125 81.0962 27.6338 81.3749 27.6338 81.72V104.31C27.6338 104.655 27.9125 104.934 28.2576 104.934H40.8002C41.1453 104.934 41.4241 104.655 41.4241 104.31V81.72ZM36.6061 101.748C35.6903 101.748 34.9338 101.005 34.9338 100.076C34.9338 99.147 35.677 98.4037 36.6061 98.4037C37.5352 98.4037 38.2783 99.147 38.2783 100.076C38.2783 101.005 37.5352 101.748 36.6061 101.748Z" stroke="#1B3863" stroke-width="0.94" stroke-miterlimit="10"/>
</svg>
