<svg width="140" height="140" viewBox="0 0 140 140" fill="none" xmlns="http://www.w3.org/2000/svg">
<path d="M140 70C140 31.3401 108.66 0 70 0C31.3401 0 0 31.3401 0 70C0 108.66 31.3401 140 70 140C108.66 140 140 108.66 140 70Z" fill="#1B3863"/>
<path d="M87.3871 114.41L72.9597 104.018C68.0886 100.514 65.1687 94.8065 65.1687 88.7675V59.5411C65.1687 59.05 65.4872 58.6253 65.965 58.4925L90.4796 51.4315C90.6787 51.3784 90.8911 51.3784 91.0902 51.4315L104.615 55.3337C102.956 49.4804 98.5096 40.2161 94.7932 36.2078C90.2938 31.35 84.2149 27.8858 77.6582 26.4258C67.7435 24.2358 57.8953 26.2533 49.9317 32.1198C42.0743 37.9067 37.097 46.7861 36.2873 56.4618C36.0882 58.758 35.4777 60.9745 34.469 63.0318L25.8152 80.6844L33.8319 83.0868C35.0397 83.4451 35.8626 84.5468 35.8626 85.8077V98.2574C35.8626 98.6158 36.1546 98.9078 36.5129 98.9078H48.8034C50.3696 98.9078 51.6438 100.182 51.6438 101.748V114.397H87.3871V114.41Z" fill="#F2F2F2" stroke="#1B3863" stroke-width="0.86" stroke-miterlimit="10"/>
<path d="M67.3586 60.3773V88.7808C67.3586 94.1164 69.9335 99.16 74.2339 102.253L90.7716 114.158L107.309 102.253C111.61 99.1467 114.185 94.1164 114.185 88.7808V60.3773L90.7716 53.6348L67.3586 60.3773ZM105.557 75.3488C105.982 75.7736 105.982 76.4637 105.557 76.9017L87.7056 94.7402C87.4932 94.9526 87.2145 95.0587 86.9358 95.0587C86.6571 95.0587 86.3783 94.9526 86.166 94.7402L75.9991 84.5733C75.5744 84.1486 75.5744 83.4584 75.9991 83.0204C76.4238 82.5957 77.114 82.5957 77.552 83.0204L86.949 92.4175L104.018 75.3488C104.442 74.9241 105.133 74.9241 105.571 75.3488H105.557Z" fill="#F2F2F2" stroke="#1B3863" stroke-width="0.86" stroke-miterlimit="10"/>
</svg>
