<svg width="140" height="140" viewBox="0 0 140 140" fill="none" xmlns="http://www.w3.org/2000/svg">
<path d="M140 70C140 31.3401 108.66 0 70 0C31.34 0 0 31.3401 0 70C0 108.66 31.34 140 70 140C108.66 140 140 108.66 140 70Z" fill="#1B3863"/>
<path d="M80.3791 25.2714C70.1591 23.0151 60.0321 25.0989 51.8163 31.1379C43.72 37.0974 38.5967 46.2422 37.7605 56.21C37.5615 58.5725 36.9377 60.8554 35.8891 62.979L26.9832 81.1493L35.2387 83.618C36.4864 83.9897 37.3226 85.1178 37.3226 86.4186V99.2399C37.3226 99.6116 37.6278 99.9168 37.9995 99.9168H50.6616C52.2808 99.9168 53.5949 101.231 53.5949 102.85V115.579L97.2221 105.292V103.607C97.2221 93.8645 99.4386 84.1622 103.646 75.5482C105.982 70.7701 107.203 65.0894 107.203 59.1432C107.19 50.0117 104.018 41.7693 98.0317 35.3055C93.3995 30.3018 87.1348 26.7314 80.3791 25.2316V25.2714ZM87.3207 79.4504C85.5952 81.1759 83.5645 82.596 81.2949 83.6578C80.8171 83.8835 80.2331 83.7375 79.9145 83.2995C79.596 82.8615 79.6358 82.2642 79.9941 81.866C80.2861 81.428 81.8921 77.2604 79.4101 72.7212C77.4325 69.111 78.282 65.1956 79.3305 62.103C76.6893 62.9923 72.2562 65.3548 71.566 71.1683C71.5262 71.5134 71.3271 71.8054 71.0351 71.9912C70.7431 72.177 70.3848 72.2035 70.0662 72.0974C69.8937 72.031 66.5755 70.7966 65.7128 66.6025C63.629 69.3632 60.8284 75.0173 64.9695 82.1846C65.2084 82.6093 65.1553 83.1402 64.8368 83.4986C64.6112 83.7375 64.3059 83.8702 64.0006 83.8702C63.8413 83.8702 63.6821 83.8437 63.5361 83.764C61.147 82.6889 59.0233 81.2289 57.2183 79.4239C49.2812 71.4868 50.0112 61.811 59.3154 51.4318C66.4295 43.508 65.7526 36.0355 65.7393 35.9692C65.6995 35.571 65.872 35.1861 66.1773 34.9472C66.4958 34.7083 66.9073 34.6552 67.279 34.8012C67.7302 34.987 78.5475 39.4466 87.3605 49.3613C95.417 58.4132 95.4037 71.3408 87.3207 79.4239V79.4504Z" fill="#F2F2F2"/>
</svg>
