<svg width="140" height="140" viewBox="0 0 140 140" fill="none" xmlns="http://www.w3.org/2000/svg">
<path d="M140 70C140 31.3401 108.66 0 70 0C31.3401 0 0 31.3401 0 70C0 108.66 31.3401 140 70 140C108.66 140 140 108.66 140 70Z" fill="#1B3863"/>
<path d="M43.6273 85.9135C44.3307 86.2586 45.0209 86.617 45.6978 87.0152L82.9675 108.543C84.6265 109.499 86.7767 108.928 87.7323 107.269C88.1969 106.46 88.3164 105.517 88.0774 104.615C87.8385 103.712 87.2545 102.956 86.4582 102.491L69.2568 92.5631C68.8984 92.3508 68.6861 91.9791 68.6861 91.581C68.6861 91.3951 68.7392 91.196 68.8321 91.0102C69.1506 90.466 69.8408 90.2802 70.3717 90.5988L87.5731 100.527C87.5731 100.527 87.666 100.567 87.7058 100.593L91.4487 102.757C93.1211 103.712 95.2579 103.141 96.2269 101.482C97.1825 99.8233 96.6118 97.6864 94.9527 96.7175L73.8757 84.5464C73.3315 84.2412 73.1457 83.5377 73.4642 83.0068C73.7828 82.4626 74.4597 82.2768 75.0039 82.5954L96.0676 94.7531C96.0676 94.7531 96.0676 94.7531 96.0809 94.7531C97.7532 95.7087 99.8901 95.138 100.859 93.4789C101.815 91.8066 101.244 89.6697 99.5716 88.7008L96.7312 87.055L78.4946 76.5298C77.9504 76.2245 77.7646 75.521 78.0831 74.9901C78.4017 74.4459 79.0919 74.2601 79.6228 74.5787L97.8196 85.0773C97.8196 85.0773 97.8461 85.0774 97.8594 85.0906C98.669 85.5552 99.6114 85.6879 100.514 85.4357C101.416 85.1968 102.173 84.6128 102.638 83.8164C103.593 82.1441 103.022 80.0072 101.363 79.0516L70.5973 61.2927L65.6997 64.1198C64.6246 64.7436 63.4434 65.0489 62.2356 65.0489C61.4259 65.0489 60.603 64.9029 59.8199 64.6109C57.8821 63.8942 56.3691 62.3413 55.6789 60.3504C54.856 57.9879 55.4798 55.3864 57.1389 53.515L52.7058 50.9533C48.4585 48.4979 43.6273 47.2104 38.7164 47.2104H24.1298V82.3697H28.4168C33.6861 82.3697 38.889 83.5775 43.614 85.9002L43.6273 85.9135Z" fill="#F2F2F2" stroke="#1B3863" stroke-miterlimit="10"/>
<path d="M54.0597 102.996C52.4006 103.965 51.8299 106.102 52.7856 107.761C53.7412 109.433 55.8914 109.99 57.5637 109.035L68.4473 102.757L61.4659 98.7219L54.0863 102.982L54.0597 102.996Z" fill="#F2F2F2" stroke="#1B3863" stroke-miterlimit="10"/>
<path d="M90.8116 44.4232C85.9139 42.1403 80.2067 42.3925 75.5347 45.0869L60.0986 54.0061C59.9792 54.0725 59.873 54.1388 59.7668 54.2185C59.7137 54.2583 59.6739 54.2981 59.6075 54.3246C57.9086 55.5855 57.1521 57.7224 57.8157 59.6204C58.2935 60.9875 59.2757 62.0095 60.603 62.5006C61.917 62.9917 63.3504 62.8722 64.5582 62.1688L71.8847 57.9348C74.7516 56.2757 79.2245 54.4043 84.8787 57.2314C85.4361 57.5101 85.6618 58.187 85.383 58.7444C85.1043 59.3019 84.4274 59.5275 83.87 59.2488C79.2378 56.9394 75.6276 58.3728 73.0129 59.8859L72.8536 59.9788L102.492 77.0873C104.416 78.2022 105.451 80.2727 105.345 82.3565H115.844V47.1972H103.46C99.1202 47.1972 94.7403 46.2283 90.7983 44.3834L90.8116 44.4232Z" fill="#F2F2F2" stroke="#1B3863" stroke-miterlimit="10"/>
<path d="M40.4286 90.7849C40.0039 92.0458 40.5879 93.1873 40.7073 93.3997C41.1586 94.2093 41.9019 94.78 42.7779 95.0189C43.6804 95.2711 44.636 95.1384 45.4722 94.6606L49.9584 92.0724L44.5697 88.9533C44.1051 88.6879 43.6406 88.4357 43.1761 88.1968C41.7028 88.9002 40.7737 89.763 40.4286 90.7717V90.7849Z" fill="#F2F2F2" stroke="#1B3863" stroke-miterlimit="10"/>
<path d="M44.981 98.7483C44.7421 99.6508 44.8616 100.593 45.3261 101.403C46.2818 103.062 48.4319 103.633 50.091 102.677L59.1961 97.421L52.2279 93.3994L46.6136 96.6379C45.8039 97.1025 45.2332 97.859 44.981 98.7616V98.7483Z" fill="#F2F2F2" stroke="#1B3863" stroke-miterlimit="10"/>
<path d="M59.7668 54.2187C59.873 54.1391 59.9924 54.0727 60.0986 54.0063C60.0323 54.0462 59.9659 54.0594 59.8995 54.086C59.8597 54.1391 59.8066 54.1789 59.7535 54.2187H59.7668Z" fill="#F2F2F2" stroke="#1B3863" stroke-miterlimit="10"/>
<path d="M59.7668 54.2188C59.7668 54.2188 59.6606 54.2984 59.6075 54.3249C59.6606 54.2984 59.7137 54.2586 59.7668 54.2188Z" fill="#F2F2F2" stroke="#1B3863" stroke-miterlimit="10"/>
<path d="M59.0236 52.0154L58.9705 52.0419C58.9705 52.0419 59.0103 52.0287 59.0236 52.0154Z" fill="#F2F2F2" stroke="#1B3863" stroke-miterlimit="10"/>
</svg>
